<mxfile host="Electron" modified="2024-04-04T15:15:56.040Z" agent="Mozilla/5.0 (X11; Linux x86_64) AppleWebKit/537.36 (KHTML, like Gecko) draw.io/24.1.0 Chrome/120.0.6099.109 Electron/28.1.0 Safari/537.36" etag="PE2MU29N_cPQ1n-iMP4S" version="24.1.0" type="device">
  <diagram name="Page-1" id="-cMVqA2Gkwa5aGeDibPs">
    <mxGraphModel dx="1762" dy="1243" grid="1" gridSize="10" guides="1" tooltips="1" connect="1" arrows="1" fold="1" page="0" pageScale="1" pageWidth="413" pageHeight="583" math="1" shadow="0">
      <root>
        <mxCell id="0" />
        <mxCell id="1" parent="0" />
        <mxCell id="GCO7xrDp6TmdYOZJOnFd-1" value="&lt;font style=&quot;font-size: 9px;&quot;&gt;$$UOelPu$$&lt;/font&gt;" style="triangle;whiteSpace=wrap;html=1;align=left;" parent="1" vertex="1">
          <mxGeometry x="-60" width="60" height="80" as="geometry" />
        </mxCell>
        <mxCell id="eN8Zq5XajQ-hrPbZrUXH-4" value="" style="edgeStyle=orthogonalEdgeStyle;rounded=0;orthogonalLoop=1;jettySize=auto;html=1;" parent="1" source="GCO7xrDp6TmdYOZJOnFd-2" target="eN8Zq5XajQ-hrPbZrUXH-3" edge="1">
          <mxGeometry relative="1" as="geometry" />
        </mxCell>
        <mxCell id="GCO7xrDp6TmdYOZJOnFd-2" value="&lt;font style=&quot;font-size: 9px;&quot;&gt;$$UsPu$$&lt;/font&gt;" style="triangle;whiteSpace=wrap;html=1;align=left;" parent="1" vertex="1">
          <mxGeometry x="-60" y="240" width="60" height="80" as="geometry" />
        </mxCell>
        <mxCell id="GCO7xrDp6TmdYOZJOnFd-3" value="&lt;font style=&quot;font-size: 9px;&quot;&gt;$$UsRefPu$$&lt;/font&gt;" style="triangle;whiteSpace=wrap;html=1;align=left;" parent="1" vertex="1">
          <mxGeometry x="-60" y="120" width="60" height="80" as="geometry" />
        </mxCell>
        <mxCell id="5HqrGk9MGbXyAHrSEdPO-14" value="" style="edgeStyle=orthogonalEdgeStyle;rounded=0;orthogonalLoop=1;jettySize=auto;html=1;" parent="1" source="GCO7xrDp6TmdYOZJOnFd-120" target="hHR6AVDcYujb22-yYQ_T-5" edge="1">
          <mxGeometry relative="1" as="geometry" />
        </mxCell>
        <mxCell id="GCO7xrDp6TmdYOZJOnFd-120" value="&lt;table style=&quot;&quot;&gt;&lt;tbody&gt;&lt;tr&gt;&lt;td&gt;&lt;font style=&quot;font-size: 12px;&quot;&gt;$$+$$&lt;/font&gt;&lt;/td&gt;&lt;/tr&gt;&lt;/tbody&gt;&lt;/table&gt;" style="whiteSpace=wrap;html=1;aspect=fixed;" parent="1" vertex="1">
          <mxGeometry x="80" y="120" width="80" height="80" as="geometry" />
        </mxCell>
        <mxCell id="pcb0Rrb9AqgbB0oOaPCg-23" value="&lt;font style=&quot;font-size: 10px;&quot;&gt;$$EfdPu$$&lt;/font&gt;" style="triangle;whiteSpace=wrap;html=1;align=left;" parent="1" vertex="1">
          <mxGeometry x="1640" y="120" width="60" height="80" as="geometry" />
        </mxCell>
        <mxCell id="eN8Zq5XajQ-hrPbZrUXH-3" value="$$\frac{1}{1+tR*s}$$" style="whiteSpace=wrap;html=1;aspect=fixed;" parent="1" vertex="1">
          <mxGeometry x="80" y="240" width="80" height="80" as="geometry" />
        </mxCell>
        <mxCell id="eN8Zq5XajQ-hrPbZrUXH-10" value="&lt;font style=&quot;font-size: 9px;&quot;&gt;$$UUelPu$$&lt;/font&gt;" style="triangle;whiteSpace=wrap;html=1;align=left;" parent="1" vertex="1">
          <mxGeometry x="-60" y="360" width="60" height="80" as="geometry" />
        </mxCell>
        <mxCell id="eN8Zq5XajQ-hrPbZrUXH-11" value="&lt;font style=&quot;font-size: 9px;&quot;&gt;$$UPssPu$$&lt;/font&gt;" style="triangle;whiteSpace=wrap;html=1;align=left;" parent="1" vertex="1">
          <mxGeometry x="-60" y="-240" width="60" height="80" as="geometry" />
        </mxCell>
        <mxCell id="3DA3jqUIZQmUKu-SOiwj-40" value="" style="edgeStyle=orthogonalEdgeStyle;rounded=0;orthogonalLoop=1;jettySize=auto;html=1;" parent="1" source="hHR6AVDcYujb22-yYQ_T-5" target="3DA3jqUIZQmUKu-SOiwj-31" edge="1">
          <mxGeometry relative="1" as="geometry" />
        </mxCell>
        <mxCell id="hHR6AVDcYujb22-yYQ_T-5" value="" style="whiteSpace=wrap;html=1;aspect=fixed;" parent="1" vertex="1">
          <mxGeometry x="240" y="120" width="80" height="80" as="geometry" />
        </mxCell>
        <mxCell id="hHR6AVDcYujb22-yYQ_T-6" value="" style="endArrow=classic;html=1;entryX=0;entryY=0.5;entryDx=0;entryDy=0;" parent="1" target="hHR6AVDcYujb22-yYQ_T-5" edge="1">
          <mxGeometry width="50" height="50" relative="1" as="geometry">
            <mxPoint x="200" y="160" as="sourcePoint" />
            <mxPoint x="360" y="190" as="targetPoint" />
          </mxGeometry>
        </mxCell>
        <mxCell id="hHR6AVDcYujb22-yYQ_T-7" value="" style="endArrow=none;html=1;" parent="1" edge="1">
          <mxGeometry width="50" height="50" relative="1" as="geometry">
            <mxPoint x="268" y="175" as="sourcePoint" />
            <mxPoint x="292" y="145" as="targetPoint" />
          </mxGeometry>
        </mxCell>
        <mxCell id="hHR6AVDcYujb22-yYQ_T-8" value="" style="endArrow=none;html=1;" parent="1" edge="1">
          <mxGeometry width="50" height="50" relative="1" as="geometry">
            <mxPoint x="292" y="145" as="sourcePoint" />
            <mxPoint x="312" y="145" as="targetPoint" />
          </mxGeometry>
        </mxCell>
        <mxCell id="hHR6AVDcYujb22-yYQ_T-9" value="" style="endArrow=none;html=1;" parent="1" edge="1">
          <mxGeometry width="50" height="50" relative="1" as="geometry">
            <mxPoint x="268" y="175" as="sourcePoint" />
            <mxPoint x="248" y="175" as="targetPoint" />
          </mxGeometry>
        </mxCell>
        <mxCell id="hHR6AVDcYujb22-yYQ_T-10" value="" style="endArrow=classic;html=1;entryX=0;entryY=0.5;entryDx=0;entryDy=0;" parent="1" edge="1">
          <mxGeometry width="50" height="50" relative="1" as="geometry">
            <mxPoint x="200" y="182" as="sourcePoint" />
            <mxPoint x="239.9999999999999" y="182" as="targetPoint" />
          </mxGeometry>
        </mxCell>
        <mxCell id="hHR6AVDcYujb22-yYQ_T-11" value="" style="endArrow=classic;html=1;entryX=0;entryY=0.5;entryDx=0;entryDy=0;" parent="1" edge="1">
          <mxGeometry width="50" height="50" relative="1" as="geometry">
            <mxPoint x="200" y="140" as="sourcePoint" />
            <mxPoint x="239.9999999999999" y="140" as="targetPoint" />
          </mxGeometry>
        </mxCell>
        <mxCell id="3DA3jqUIZQmUKu-SOiwj-28" value="" style="edgeStyle=orthogonalEdgeStyle;rounded=0;orthogonalLoop=1;jettySize=auto;html=1;" parent="1" source="5HqrGk9MGbXyAHrSEdPO-17" target="3DA3jqUIZQmUKu-SOiwj-19" edge="1">
          <mxGeometry relative="1" as="geometry" />
        </mxCell>
        <mxCell id="5HqrGk9MGbXyAHrSEdPO-17" value="$$Kpa$$" style="rounded=0;whiteSpace=wrap;html=1;" parent="1" vertex="1">
          <mxGeometry x="640" y="120" width="80" height="80" as="geometry" />
        </mxCell>
        <mxCell id="3DA3jqUIZQmUKu-SOiwj-14" value="" style="edgeStyle=orthogonalEdgeStyle;rounded=0;orthogonalLoop=1;jettySize=auto;html=1;" parent="1" source="5HqrGk9MGbXyAHrSEdPO-37" target="3DA3jqUIZQmUKu-SOiwj-3" edge="1">
          <mxGeometry relative="1" as="geometry" />
        </mxCell>
        <mxCell id="5HqrGk9MGbXyAHrSEdPO-37" value="" style="ellipse;whiteSpace=wrap;html=1;aspect=fixed;" parent="1" vertex="1">
          <mxGeometry x="1060" y="140" width="40" height="40" as="geometry" />
        </mxCell>
        <mxCell id="5HqrGk9MGbXyAHrSEdPO-40" value="+" style="text;html=1;strokeColor=none;fillColor=none;align=center;verticalAlign=middle;whiteSpace=wrap;rounded=0;fontSize=20;" parent="1" vertex="1">
          <mxGeometry x="1018" y="129" width="60" height="30" as="geometry" />
        </mxCell>
        <mxCell id="5HqrGk9MGbXyAHrSEdPO-41" value="-" style="text;html=1;strokeColor=none;fillColor=none;align=center;verticalAlign=middle;whiteSpace=wrap;rounded=0;fontSize=20;" parent="1" vertex="1">
          <mxGeometry x="1068" y="181" width="60" height="30" as="geometry" />
        </mxCell>
        <mxCell id="3DA3jqUIZQmUKu-SOiwj-12" value="" style="edgeStyle=orthogonalEdgeStyle;rounded=0;orthogonalLoop=1;jettySize=auto;html=1;" parent="1" source="5HqrGk9MGbXyAHrSEdPO-51" target="pcb0Rrb9AqgbB0oOaPCg-23" edge="1">
          <mxGeometry relative="1" as="geometry" />
        </mxCell>
        <mxCell id="5HqrGk9MGbXyAHrSEdPO-51" value="" style="whiteSpace=wrap;html=1;aspect=fixed;" parent="1" vertex="1">
          <mxGeometry x="1480" y="120" width="80" height="80" as="geometry" />
        </mxCell>
        <mxCell id="5HqrGk9MGbXyAHrSEdPO-52" value="" style="endArrow=classic;html=1;entryX=0;entryY=0.5;entryDx=0;entryDy=0;" parent="1" target="5HqrGk9MGbXyAHrSEdPO-51" edge="1">
          <mxGeometry width="50" height="50" relative="1" as="geometry">
            <mxPoint x="1440" y="160" as="sourcePoint" />
            <mxPoint x="1600" y="190" as="targetPoint" />
          </mxGeometry>
        </mxCell>
        <mxCell id="5HqrGk9MGbXyAHrSEdPO-53" value="" style="endArrow=none;html=1;" parent="1" edge="1">
          <mxGeometry width="50" height="50" relative="1" as="geometry">
            <mxPoint x="1508" y="175" as="sourcePoint" />
            <mxPoint x="1532" y="145" as="targetPoint" />
          </mxGeometry>
        </mxCell>
        <mxCell id="5HqrGk9MGbXyAHrSEdPO-54" value="" style="endArrow=none;html=1;" parent="1" edge="1">
          <mxGeometry width="50" height="50" relative="1" as="geometry">
            <mxPoint x="1532" y="145" as="sourcePoint" />
            <mxPoint x="1552" y="145" as="targetPoint" />
          </mxGeometry>
        </mxCell>
        <mxCell id="5HqrGk9MGbXyAHrSEdPO-55" value="" style="endArrow=none;html=1;" parent="1" edge="1">
          <mxGeometry width="50" height="50" relative="1" as="geometry">
            <mxPoint x="1508" y="175" as="sourcePoint" />
            <mxPoint x="1488" y="175" as="targetPoint" />
          </mxGeometry>
        </mxCell>
        <mxCell id="3DA3jqUIZQmUKu-SOiwj-2" value="" style="edgeStyle=orthogonalEdgeStyle;rounded=0;orthogonalLoop=1;jettySize=auto;html=1;" parent="1" source="3DA3jqUIZQmUKu-SOiwj-1" target="5HqrGk9MGbXyAHrSEdPO-51" edge="1">
          <mxGeometry relative="1" as="geometry" />
        </mxCell>
        <mxCell id="3DA3jqUIZQmUKu-SOiwj-1" value="$$\frac{1}{1+tA*s}$$" style="rounded=0;whiteSpace=wrap;html=1;" parent="1" vertex="1">
          <mxGeometry x="1320" y="120" width="80" height="80" as="geometry" />
        </mxCell>
        <mxCell id="3DA3jqUIZQmUKu-SOiwj-10" value="" style="edgeStyle=orthogonalEdgeStyle;rounded=0;orthogonalLoop=1;jettySize=auto;html=1;" parent="1" source="3DA3jqUIZQmUKu-SOiwj-3" target="3DA3jqUIZQmUKu-SOiwj-1" edge="1">
          <mxGeometry relative="1" as="geometry" />
        </mxCell>
        <mxCell id="3DA3jqUIZQmUKu-SOiwj-3" value="" style="whiteSpace=wrap;html=1;aspect=fixed;" parent="1" vertex="1">
          <mxGeometry x="1200" y="120" width="80" height="80" as="geometry" />
        </mxCell>
        <mxCell id="3DA3jqUIZQmUKu-SOiwj-4" value="" style="endArrow=classic;html=1;entryX=0;entryY=0.5;entryDx=0;entryDy=0;" parent="1" target="3DA3jqUIZQmUKu-SOiwj-3" edge="1">
          <mxGeometry width="50" height="50" relative="1" as="geometry">
            <mxPoint x="1160" y="160" as="sourcePoint" />
            <mxPoint x="1320" y="190" as="targetPoint" />
          </mxGeometry>
        </mxCell>
        <mxCell id="3DA3jqUIZQmUKu-SOiwj-5" value="" style="endArrow=none;html=1;" parent="1" edge="1">
          <mxGeometry width="50" height="50" relative="1" as="geometry">
            <mxPoint x="1228" y="175" as="sourcePoint" />
            <mxPoint x="1252" y="145" as="targetPoint" />
          </mxGeometry>
        </mxCell>
        <mxCell id="3DA3jqUIZQmUKu-SOiwj-6" value="" style="endArrow=none;html=1;" parent="1" edge="1">
          <mxGeometry width="50" height="50" relative="1" as="geometry">
            <mxPoint x="1252" y="145" as="sourcePoint" />
            <mxPoint x="1272" y="145" as="targetPoint" />
          </mxGeometry>
        </mxCell>
        <mxCell id="3DA3jqUIZQmUKu-SOiwj-7" value="" style="endArrow=none;html=1;" parent="1" edge="1">
          <mxGeometry width="50" height="50" relative="1" as="geometry">
            <mxPoint x="1228" y="175" as="sourcePoint" />
            <mxPoint x="1208" y="175" as="targetPoint" />
          </mxGeometry>
        </mxCell>
        <mxCell id="3DA3jqUIZQmUKu-SOiwj-8" value="" style="endArrow=classic;html=1;entryX=0;entryY=0.5;entryDx=0;entryDy=0;" parent="1" edge="1">
          <mxGeometry width="50" height="50" relative="1" as="geometry">
            <mxPoint x="1160" y="182" as="sourcePoint" />
            <mxPoint x="1200" y="182" as="targetPoint" />
          </mxGeometry>
        </mxCell>
        <mxCell id="3DA3jqUIZQmUKu-SOiwj-9" value="" style="endArrow=classic;html=1;entryX=0;entryY=0.5;entryDx=0;entryDy=0;" parent="1" edge="1">
          <mxGeometry width="50" height="50" relative="1" as="geometry">
            <mxPoint x="1160" y="140" as="sourcePoint" />
            <mxPoint x="1200" y="140" as="targetPoint" />
          </mxGeometry>
        </mxCell>
        <mxCell id="3DA3jqUIZQmUKu-SOiwj-11" value="$$\frac{Kia}{1+tIa*s}$$" style="rounded=0;whiteSpace=wrap;html=1;" parent="1" vertex="1">
          <mxGeometry x="1480" y="240" width="80" height="80" as="geometry" />
        </mxCell>
        <mxCell id="3DA3jqUIZQmUKu-SOiwj-13" value="" style="endArrow=classic;html=1;rounded=0;exitX=1;exitY=0.5;exitDx=0;exitDy=0;entryX=1;entryY=0.5;entryDx=0;entryDy=0;" parent="1" source="5HqrGk9MGbXyAHrSEdPO-51" target="3DA3jqUIZQmUKu-SOiwj-11" edge="1">
          <mxGeometry width="50" height="50" relative="1" as="geometry">
            <mxPoint x="1390" y="240" as="sourcePoint" />
            <mxPoint x="1440" y="190" as="targetPoint" />
            <Array as="points">
              <mxPoint x="1600" y="160" />
              <mxPoint x="1600" y="280" />
            </Array>
          </mxGeometry>
        </mxCell>
        <mxCell id="3DA3jqUIZQmUKu-SOiwj-15" value="" style="endArrow=none;dashed=1;html=1;dashPattern=1 3;strokeWidth=2;rounded=0;exitX=0;exitY=0.5;exitDx=0;exitDy=0;entryX=0.5;entryY=1;entryDx=0;entryDy=0;" parent="1" source="3DA3jqUIZQmUKu-SOiwj-11" target="5HqrGk9MGbXyAHrSEdPO-37" edge="1">
          <mxGeometry width="50" height="50" relative="1" as="geometry">
            <mxPoint x="1300" y="240" as="sourcePoint" />
            <mxPoint x="1350" y="190" as="targetPoint" />
            <Array as="points">
              <mxPoint x="1080" y="280" />
            </Array>
          </mxGeometry>
        </mxCell>
        <mxCell id="3DA3jqUIZQmUKu-SOiwj-16" value="$$\frac{1+tC*s}{1+tB*s}$$" style="rounded=0;whiteSpace=wrap;html=1;" parent="1" vertex="1">
          <mxGeometry x="920" y="120" width="80" height="80" as="geometry" />
        </mxCell>
        <mxCell id="3DA3jqUIZQmUKu-SOiwj-18" value="" style="endArrow=classic;html=1;rounded=0;exitX=1;exitY=0.5;exitDx=0;exitDy=0;entryX=0;entryY=0.5;entryDx=0;entryDy=0;" parent="1" source="3DA3jqUIZQmUKu-SOiwj-16" target="5HqrGk9MGbXyAHrSEdPO-37" edge="1">
          <mxGeometry width="50" height="50" relative="1" as="geometry">
            <mxPoint x="1300" y="60" as="sourcePoint" />
            <mxPoint x="1350" y="10" as="targetPoint" />
          </mxGeometry>
        </mxCell>
        <mxCell id="3DA3jqUIZQmUKu-SOiwj-26" value="" style="edgeStyle=orthogonalEdgeStyle;rounded=0;orthogonalLoop=1;jettySize=auto;html=1;" parent="1" source="3DA3jqUIZQmUKu-SOiwj-19" target="3DA3jqUIZQmUKu-SOiwj-16" edge="1">
          <mxGeometry relative="1" as="geometry" />
        </mxCell>
        <mxCell id="3DA3jqUIZQmUKu-SOiwj-19" value="" style="whiteSpace=wrap;html=1;aspect=fixed;" parent="1" vertex="1">
          <mxGeometry x="800" y="120" width="80" height="80" as="geometry" />
        </mxCell>
        <mxCell id="3DA3jqUIZQmUKu-SOiwj-20" value="" style="endArrow=classic;html=1;entryX=0;entryY=0.5;entryDx=0;entryDy=0;" parent="1" target="3DA3jqUIZQmUKu-SOiwj-19" edge="1">
          <mxGeometry width="50" height="50" relative="1" as="geometry">
            <mxPoint x="760" y="160" as="sourcePoint" />
            <mxPoint x="920" y="190" as="targetPoint" />
          </mxGeometry>
        </mxCell>
        <mxCell id="3DA3jqUIZQmUKu-SOiwj-21" value="" style="endArrow=none;html=1;" parent="1" edge="1">
          <mxGeometry width="50" height="50" relative="1" as="geometry">
            <mxPoint x="828" y="175" as="sourcePoint" />
            <mxPoint x="852" y="145" as="targetPoint" />
          </mxGeometry>
        </mxCell>
        <mxCell id="3DA3jqUIZQmUKu-SOiwj-22" value="" style="endArrow=none;html=1;" parent="1" edge="1">
          <mxGeometry width="50" height="50" relative="1" as="geometry">
            <mxPoint x="852" y="145" as="sourcePoint" />
            <mxPoint x="872" y="145" as="targetPoint" />
          </mxGeometry>
        </mxCell>
        <mxCell id="3DA3jqUIZQmUKu-SOiwj-23" value="" style="endArrow=none;html=1;" parent="1" edge="1">
          <mxGeometry width="50" height="50" relative="1" as="geometry">
            <mxPoint x="828" y="175" as="sourcePoint" />
            <mxPoint x="808" y="175" as="targetPoint" />
          </mxGeometry>
        </mxCell>
        <mxCell id="3DA3jqUIZQmUKu-SOiwj-30" value="" style="edgeStyle=orthogonalEdgeStyle;rounded=0;orthogonalLoop=1;jettySize=auto;html=1;" parent="1" source="3DA3jqUIZQmUKu-SOiwj-29" target="5HqrGk9MGbXyAHrSEdPO-17" edge="1">
          <mxGeometry relative="1" as="geometry" />
        </mxCell>
        <mxCell id="3DA3jqUIZQmUKu-SOiwj-29" value="&lt;table style=&quot;font-size: 8px;&quot;&gt;&lt;tbody&gt;&lt;tr&gt;&lt;td&gt;&lt;font style=&quot;font-size: 8px;&quot;&gt;$$1$$&lt;/font&gt;&lt;/td&gt;&lt;/tr&gt;&lt;tr&gt;&lt;td&gt;&lt;font style=&quot;font-size: 8px;&quot;&gt;$$1$$&lt;/font&gt;&lt;/td&gt;&lt;/tr&gt;&lt;tr&gt;&lt;td&gt;&lt;font style=&quot;font-size: 8px;&quot;&gt;$$-1$$&lt;/font&gt;&lt;/td&gt;&lt;/tr&gt;&lt;/tbody&gt;&lt;/table&gt;" style="whiteSpace=wrap;html=1;aspect=fixed;" parent="1" vertex="1">
          <mxGeometry x="520" y="120" width="80" height="80" as="geometry" />
        </mxCell>
        <mxCell id="3DA3jqUIZQmUKu-SOiwj-38" value="" style="edgeStyle=orthogonalEdgeStyle;rounded=0;orthogonalLoop=1;jettySize=auto;html=1;" parent="1" source="3DA3jqUIZQmUKu-SOiwj-31" target="3DA3jqUIZQmUKu-SOiwj-29" edge="1">
          <mxGeometry relative="1" as="geometry" />
        </mxCell>
        <mxCell id="3DA3jqUIZQmUKu-SOiwj-31" value="" style="whiteSpace=wrap;html=1;aspect=fixed;" parent="1" vertex="1">
          <mxGeometry x="360" y="120" width="80" height="80" as="geometry" />
        </mxCell>
        <mxCell id="3DA3jqUIZQmUKu-SOiwj-32" value="" style="endArrow=none;html=1;" parent="1" edge="1">
          <mxGeometry width="50" height="50" relative="1" as="geometry">
            <mxPoint x="388" y="175" as="sourcePoint" />
            <mxPoint x="412" y="145" as="targetPoint" />
          </mxGeometry>
        </mxCell>
        <mxCell id="3DA3jqUIZQmUKu-SOiwj-33" value="" style="endArrow=none;html=1;" parent="1" edge="1">
          <mxGeometry width="50" height="50" relative="1" as="geometry">
            <mxPoint x="412" y="145" as="sourcePoint" />
            <mxPoint x="432" y="145" as="targetPoint" />
          </mxGeometry>
        </mxCell>
        <mxCell id="3DA3jqUIZQmUKu-SOiwj-34" value="&lt;font style=&quot;font-size: 9px;&quot;&gt;$$VMaxPu$$&lt;/font&gt;" style="text;html=1;strokeColor=none;fillColor=none;align=center;verticalAlign=middle;whiteSpace=wrap;rounded=0;fontSize=15;" parent="1" vertex="1">
          <mxGeometry x="404" y="90" width="60" height="30" as="geometry" />
        </mxCell>
        <mxCell id="3DA3jqUIZQmUKu-SOiwj-35" value="" style="endArrow=none;html=1;" parent="1" edge="1">
          <mxGeometry width="50" height="50" relative="1" as="geometry">
            <mxPoint x="388" y="175" as="sourcePoint" />
            <mxPoint x="368" y="175" as="targetPoint" />
          </mxGeometry>
        </mxCell>
        <mxCell id="3DA3jqUIZQmUKu-SOiwj-36" value="&lt;font style=&quot;font-size: 9px;&quot;&gt;$$VMinPu$$&lt;/font&gt;" style="text;html=1;strokeColor=none;fillColor=none;align=center;verticalAlign=middle;whiteSpace=wrap;rounded=0;fontSize=15;" parent="1" vertex="1">
          <mxGeometry x="340" y="200" width="60" height="30" as="geometry" />
        </mxCell>
        <mxCell id="3DA3jqUIZQmUKu-SOiwj-41" value="$$\frac{1+tG*s}{1+tF*s}$$" style="whiteSpace=wrap;html=1;aspect=fixed;" parent="1" vertex="1">
          <mxGeometry x="360" y="240" width="80" height="80" as="geometry" />
        </mxCell>
        <mxCell id="3DA3jqUIZQmUKu-SOiwj-42" value="" style="endArrow=classic;html=1;rounded=0;exitX=1;exitY=0.5;exitDx=0;exitDy=0;entryX=0;entryY=0.75;entryDx=0;entryDy=0;" parent="1" source="3DA3jqUIZQmUKu-SOiwj-41" target="3DA3jqUIZQmUKu-SOiwj-29" edge="1">
          <mxGeometry width="50" height="50" relative="1" as="geometry">
            <mxPoint x="450" y="280" as="sourcePoint" />
            <mxPoint x="500" y="230" as="targetPoint" />
            <Array as="points">
              <mxPoint x="480" y="280" />
              <mxPoint x="480" y="180" />
            </Array>
          </mxGeometry>
        </mxCell>
        <mxCell id="3DA3jqUIZQmUKu-SOiwj-43" value="" style="endArrow=none;dashed=1;html=1;dashPattern=1 3;strokeWidth=2;rounded=0;entryX=1;entryY=0.5;entryDx=0;entryDy=0;exitX=0;exitY=0.5;exitDx=0;exitDy=0;" parent="1" source="GCO7xrDp6TmdYOZJOnFd-120" target="GCO7xrDp6TmdYOZJOnFd-3" edge="1">
          <mxGeometry width="50" height="50" relative="1" as="geometry">
            <mxPoint x="-30" y="180" as="sourcePoint" />
            <mxPoint x="20" y="130" as="targetPoint" />
          </mxGeometry>
        </mxCell>
        <mxCell id="3DA3jqUIZQmUKu-SOiwj-44" value="" style="endArrow=classic;html=1;rounded=0;exitX=1;exitY=0.5;exitDx=0;exitDy=0;entryX=0;entryY=0.5;entryDx=0;entryDy=0;" parent="1" source="eN8Zq5XajQ-hrPbZrUXH-3" target="3DA3jqUIZQmUKu-SOiwj-41" edge="1">
          <mxGeometry width="50" height="50" relative="1" as="geometry">
            <mxPoint x="210" y="280" as="sourcePoint" />
            <mxPoint x="260" y="230" as="targetPoint" />
          </mxGeometry>
        </mxCell>
        <mxCell id="3DA3jqUIZQmUKu-SOiwj-46" value="&lt;table style=&quot;&quot;&gt;&lt;tbody&gt;&lt;tr&gt;&lt;td&gt;&lt;font style=&quot;font-size: 12px;&quot;&gt;$$VrMinPu$$&lt;/font&gt;&lt;/td&gt;&lt;/tr&gt;&lt;/tbody&gt;&lt;/table&gt;" style="whiteSpace=wrap;html=1;aspect=fixed;" parent="1" vertex="1">
          <mxGeometry x="80" y="360" width="80" height="80" as="geometry" />
        </mxCell>
        <mxCell id="3DA3jqUIZQmUKu-SOiwj-47" value="&lt;table style=&quot;&quot;&gt;&lt;tbody&gt;&lt;tr&gt;&lt;td&gt;&lt;font style=&quot;font-size: 12px;&quot;&gt;$$VrMaxPu$$&lt;/font&gt;&lt;/td&gt;&lt;/tr&gt;&lt;/tbody&gt;&lt;/table&gt;" style="whiteSpace=wrap;html=1;aspect=fixed;" parent="1" vertex="1">
          <mxGeometry x="80" y="-80" width="80" height="80" as="geometry" />
        </mxCell>
        <mxCell id="3DA3jqUIZQmUKu-SOiwj-48" value="" style="endArrow=classic;html=1;rounded=0;exitX=1;exitY=0.5;exitDx=0;exitDy=0;entryX=0;entryY=0.5;entryDx=0;entryDy=0;" parent="1" source="GCO7xrDp6TmdYOZJOnFd-2" target="3DA3jqUIZQmUKu-SOiwj-47" edge="1">
          <mxGeometry width="50" height="50" relative="1" as="geometry">
            <mxPoint x="-30" y="180" as="sourcePoint" />
            <mxPoint x="20" y="130" as="targetPoint" />
            <Array as="points">
              <mxPoint x="40" y="280" />
              <mxPoint x="40" y="-40" />
            </Array>
          </mxGeometry>
        </mxCell>
        <mxCell id="3DA3jqUIZQmUKu-SOiwj-49" value="" style="endArrow=classic;html=1;rounded=0;exitX=1;exitY=0.5;exitDx=0;exitDy=0;entryX=0;entryY=0.5;entryDx=0;entryDy=0;" parent="1" source="GCO7xrDp6TmdYOZJOnFd-2" target="3DA3jqUIZQmUKu-SOiwj-46" edge="1">
          <mxGeometry width="50" height="50" relative="1" as="geometry">
            <mxPoint x="10" y="270" as="sourcePoint" />
            <mxPoint x="60" y="220" as="targetPoint" />
            <Array as="points">
              <mxPoint x="40" y="280" />
              <mxPoint x="40" y="400" />
            </Array>
          </mxGeometry>
        </mxCell>
        <mxCell id="3DA3jqUIZQmUKu-SOiwj-50" value="" style="endArrow=classic;html=1;rounded=0;exitX=1;exitY=0.5;exitDx=0;exitDy=0;entryX=0;entryY=0.75;entryDx=0;entryDy=0;" parent="1" source="3DA3jqUIZQmUKu-SOiwj-46" target="5HqrGk9MGbXyAHrSEdPO-51" edge="1">
          <mxGeometry width="50" height="50" relative="1" as="geometry">
            <mxPoint x="170" y="410" as="sourcePoint" />
            <mxPoint x="741" y="400" as="targetPoint" />
            <Array as="points">
              <mxPoint x="1440" y="400" />
              <mxPoint x="1440" y="180" />
            </Array>
          </mxGeometry>
        </mxCell>
        <mxCell id="3DA3jqUIZQmUKu-SOiwj-51" value="" style="endArrow=classic;html=1;rounded=0;exitX=1;exitY=0.5;exitDx=0;exitDy=0;entryX=0;entryY=0.25;entryDx=0;entryDy=0;" parent="1" source="3DA3jqUIZQmUKu-SOiwj-47" target="5HqrGk9MGbXyAHrSEdPO-51" edge="1">
          <mxGeometry width="50" height="50" relative="1" as="geometry">
            <mxPoint x="170" y="50" as="sourcePoint" />
            <mxPoint x="1081" y="40" as="targetPoint" />
            <Array as="points">
              <mxPoint x="1440" y="-40" />
              <mxPoint x="1440" y="140" />
            </Array>
          </mxGeometry>
        </mxCell>
        <mxCell id="3DA3jqUIZQmUKu-SOiwj-52" value="&lt;table&gt;&lt;tbody&gt;&lt;tr&gt;&lt;td&gt;$$-Kh$$&lt;/td&gt;&lt;/tr&gt;&lt;tr&gt;&lt;td&gt;$$1$$&lt;/td&gt;&lt;/tr&gt;&lt;/tbody&gt;&lt;/table&gt;" style="whiteSpace=wrap;html=1;aspect=fixed;" parent="1" vertex="1">
          <mxGeometry x="800" y="240" width="80" height="80" as="geometry" />
        </mxCell>
        <mxCell id="3DA3jqUIZQmUKu-SOiwj-53" value="" style="endArrow=none;dashed=1;html=1;dashPattern=1 3;strokeWidth=2;rounded=0;exitX=0;exitY=0.5;exitDx=0;exitDy=0;entryX=1;entryY=0.25;entryDx=0;entryDy=0;" parent="1" source="3DA3jqUIZQmUKu-SOiwj-11" target="3DA3jqUIZQmUKu-SOiwj-52" edge="1">
          <mxGeometry width="50" height="50" relative="1" as="geometry">
            <mxPoint x="880" y="100" as="sourcePoint" />
            <mxPoint x="930" y="50" as="targetPoint" />
            <Array as="points">
              <mxPoint x="1080" y="280" />
              <mxPoint x="1080" y="260" />
            </Array>
          </mxGeometry>
        </mxCell>
        <mxCell id="3DA3jqUIZQmUKu-SOiwj-54" value="" style="endArrow=classic;html=1;rounded=0;exitX=1;exitY=0.5;exitDx=0;exitDy=0;entryX=1;entryY=0.75;entryDx=0;entryDy=0;" parent="1" source="3DA3jqUIZQmUKu-SOiwj-46" target="3DA3jqUIZQmUKu-SOiwj-52" edge="1">
          <mxGeometry width="50" height="50" relative="1" as="geometry">
            <mxPoint x="480" y="400" as="sourcePoint" />
            <mxPoint x="530" y="350" as="targetPoint" />
            <Array as="points">
              <mxPoint x="920" y="400" />
              <mxPoint x="920" y="300" />
            </Array>
          </mxGeometry>
        </mxCell>
        <mxCell id="3DA3jqUIZQmUKu-SOiwj-55" value="&lt;table&gt;&lt;tbody&gt;&lt;tr&gt;&lt;td&gt;$$1$$&lt;/td&gt;&lt;/tr&gt;&lt;tr&gt;&lt;td&gt;$$-Kl$$&lt;/td&gt;&lt;/tr&gt;&lt;/tbody&gt;&lt;/table&gt;" style="whiteSpace=wrap;html=1;aspect=fixed;" parent="1" vertex="1">
          <mxGeometry x="800" width="80" height="80" as="geometry" />
        </mxCell>
        <mxCell id="3DA3jqUIZQmUKu-SOiwj-56" value="" style="endArrow=none;dashed=1;html=1;dashPattern=1 3;strokeWidth=2;rounded=0;exitX=0;exitY=0.5;exitDx=0;exitDy=0;entryX=1;entryY=0.75;entryDx=0;entryDy=0;" parent="1" source="3DA3jqUIZQmUKu-SOiwj-11" target="3DA3jqUIZQmUKu-SOiwj-55" edge="1">
          <mxGeometry width="50" height="50" relative="1" as="geometry">
            <mxPoint x="1310" y="100" as="sourcePoint" />
            <mxPoint x="1360" y="50" as="targetPoint" />
            <Array as="points">
              <mxPoint x="1080" y="280" />
              <mxPoint x="1080" y="260" />
              <mxPoint x="1040" y="260" />
              <mxPoint x="1040" y="60" />
            </Array>
          </mxGeometry>
        </mxCell>
        <mxCell id="3DA3jqUIZQmUKu-SOiwj-57" value="" style="endArrow=classic;html=1;rounded=0;exitX=1;exitY=0.5;exitDx=0;exitDy=0;entryX=1;entryY=0.25;entryDx=0;entryDy=0;" parent="1" source="3DA3jqUIZQmUKu-SOiwj-47" target="3DA3jqUIZQmUKu-SOiwj-55" edge="1">
          <mxGeometry width="50" height="50" relative="1" as="geometry">
            <mxPoint x="490" y="100" as="sourcePoint" />
            <mxPoint x="540" y="50" as="targetPoint" />
            <Array as="points">
              <mxPoint x="920" y="-40" />
              <mxPoint x="920" y="20" />
            </Array>
          </mxGeometry>
        </mxCell>
        <mxCell id="3DA3jqUIZQmUKu-SOiwj-58" value="" style="endArrow=classic;html=1;rounded=0;exitX=0;exitY=0.5;exitDx=0;exitDy=0;entryX=0;entryY=0.25;entryDx=0;entryDy=0;" parent="1" source="3DA3jqUIZQmUKu-SOiwj-55" target="3DA3jqUIZQmUKu-SOiwj-19" edge="1">
          <mxGeometry width="50" height="50" relative="1" as="geometry">
            <mxPoint x="1160" y="100" as="sourcePoint" />
            <mxPoint x="1210" y="50" as="targetPoint" />
            <Array as="points">
              <mxPoint x="760" y="40" />
              <mxPoint x="760" y="140" />
            </Array>
          </mxGeometry>
        </mxCell>
        <mxCell id="3DA3jqUIZQmUKu-SOiwj-59" value="" style="endArrow=classic;html=1;rounded=0;exitX=0;exitY=0.5;exitDx=0;exitDy=0;entryX=0;entryY=0.75;entryDx=0;entryDy=0;" parent="1" source="3DA3jqUIZQmUKu-SOiwj-52" target="3DA3jqUIZQmUKu-SOiwj-19" edge="1">
          <mxGeometry width="50" height="50" relative="1" as="geometry">
            <mxPoint x="990" y="100" as="sourcePoint" />
            <mxPoint x="1040" y="50" as="targetPoint" />
            <Array as="points">
              <mxPoint x="760" y="280" />
              <mxPoint x="760" y="180" />
            </Array>
          </mxGeometry>
        </mxCell>
        <mxCell id="3DA3jqUIZQmUKu-SOiwj-61" value="" style="endArrow=none;dashed=1;html=1;dashPattern=1 3;strokeWidth=2;rounded=0;exitX=1;exitY=0.5;exitDx=0;exitDy=0;entryX=0;entryY=0.25;entryDx=0;entryDy=0;" parent="1" source="eN8Zq5XajQ-hrPbZrUXH-11" target="3DA3jqUIZQmUKu-SOiwj-29" edge="1">
          <mxGeometry width="50" height="50" relative="1" as="geometry">
            <mxPoint x="380" y="-40" as="sourcePoint" />
            <mxPoint x="430" y="-90" as="targetPoint" />
            <Array as="points">
              <mxPoint x="480" y="-200" />
              <mxPoint x="480" y="140" />
            </Array>
          </mxGeometry>
        </mxCell>
        <mxCell id="DVNMNeAWiESXDY4hz0cL-1" value="&lt;font style=&quot;font-size: 9px;&quot;&gt;$$USclUelPu$$&lt;/font&gt;" style="triangle;whiteSpace=wrap;html=1;align=left;" vertex="1" parent="1">
          <mxGeometry x="-60" y="480" width="60" height="80" as="geometry" />
        </mxCell>
        <mxCell id="DVNMNeAWiESXDY4hz0cL-2" value="&lt;font style=&quot;font-size: 9px;&quot;&gt;$$USclOelPu$$&lt;/font&gt;" style="triangle;whiteSpace=wrap;html=1;align=left;" vertex="1" parent="1">
          <mxGeometry x="-60" y="-120" width="60" height="80" as="geometry" />
        </mxCell>
      </root>
    </mxGraphModel>
  </diagram>
</mxfile>
